<?xml version="1.0"?>
<svg xmlns="http://www.w3.org/2000/svg" xmlns:xlink="http://www.w3.org/1999/xlink" xmlns:svgjs="http://svgjs.com/svgjs" version="1.1" width="512" height="512" x="0" y="0" viewBox="0 0 512.0818 512" style="enable-background:new 0 0 512 512" xml:space="preserve" class=""><g><path xmlns="http://www.w3.org/2000/svg" d="m488.535156 400.933594c-.425781.855468-1.28125 1.707031-2.347656 2.347656l-117.332031 85.332031c-1.28125 1.070313-2.988281 1.707031-4.695313 2.136719l-160 21.332031h-1.492187c-1.28125 0-2.558594-.214843-3.625-.855469l35.625-95.144531 170.667969-74.667969zm0 0" fill="#cc99ff" data-original="#66bb6a" style="" class=""/><path xmlns="http://www.w3.org/2000/svg" d="m512 225.363281-21.332031 170.664063c-.210938 1.921875-.851563 3.414062-2.132813 4.90625l-83.199218-59.519532-10.667969-181.332031 71.46875-71.46875c1.277343 1.070313 2.132812 2.5625 2.558593 4.054688l42.667969 128c.636719 1.492187.851563 3.199219.636719 4.695312zm0 0" fill="#a579d2" data-original="#4caf50" style="" class=""/><path xmlns="http://www.w3.org/2000/svg" d="m466.136719 88.613281-71.46875 71.46875-181.332031-42.667969-46.933594-105.597656c1.066406-.640625 2.132812-.855468 3.414062-1.066406l149.332032-10.6679688c2.347656-.2148432 4.480468.4257808 6.398437 1.4921878l138.667969 85.335937c.640625.425782 1.28125 1.066406 1.921875 1.703125zm0 0" fill="#cc99ff" data-original="#66bb6a" style="" class=""/><path xmlns="http://www.w3.org/2000/svg" d="m213.335938 117.414062-96 149.335938h-117.335938c0-1.066406.214844-1.921875.429688-2.773438l42.664062-160c.640625-2.347656 1.921875-4.480468 4.054688-5.761718l117.332031-85.332032c.640625-.425781 1.28125-.855468 1.921875-1.066406zm0 0" fill="#cc99ff" data-original="#43a047" style="" class=""/><path xmlns="http://www.w3.org/2000/svg" d="m405.335938 341.414062-170.667969 74.667969-117.332031-149.332031 96-149.335938 181.332031 42.667969zm0 0" fill="#d3b4f1" data-original="#81c784" style="" class=""/><path xmlns="http://www.w3.org/2000/svg" d="m234.667969 416.082031-35.625 95.144531c-.640625 0-1.28125-.425781-1.921875-.636718l-138.664063-85.335938c-2.136719-1.277344-3.628906-3.199218-4.480469-5.546875l-53.335937-149.332031c-.425781-1.28125-.640625-2.558594-.640625-3.625h117.335938zm0 0" fill="#a579d2" data-original="#4caf50" style="" class=""/><path xmlns="http://www.w3.org/2000/svg" d="m202.667969 512.082031c-1.960938 0-3.902344-.535156-5.589844-1.578125l-138.664063-85.335937c-2.09375-1.277344-3.648437-3.199219-4.460937-5.503907l-53.332031-149.332031c-.726563-2.027343-.8125-4.246093-.277344-6.335937l42.667969-160c.636719-2.367188 2.066406-4.4375 4.03125-5.867188l117.332031-85.332031c1.601562-1.171875 3.519531-1.878906 5.527344-2.003906l149.332031-10.667969c2.21875-.171875 4.4375.382812 6.335937 1.558594l138.667969 85.332031c2.152344 1.320313 3.753907 3.328125 4.542969 5.71875l42.664062 128c.492188 1.511719.664063 3.113281.449219 4.691406l-21.332031 170.667969c-.382812 2.921875-1.921875 5.566406-4.308594 7.292969l-117.335937 85.335937c-1.429688 1.042969-3.113281 1.726563-4.863281 1.941406l-160 21.332032c-.449219.0625-.917969.085937-1.386719.085937zm-129.875-103.105469 132.222656 81.367188 153.558594-20.480469 111.402343-81.023437 20.480469-163.691406-40.683593-122.027344-132.4375-81.492188-142.847657 10.21875-111.832031 81.300782-40.832031 153.128906zm0 0" fill="#ffffff" data-original="#000000" style="" class=""/><path xmlns="http://www.w3.org/2000/svg" d="m234.667969 426.75c-3.179688 0-6.3125-1.429688-8.40625-4.078125l-117.332031-149.332031c-2.792969-3.5625-3.050782-8.53125-.574219-12.371094l96-149.335938c2.453125-3.796874 7.039062-5.632812 11.410156-4.605468l181.335937 42.664062c4.605469 1.089844 7.933594 5.058594 8.210938 9.773438l10.667969 181.332031c.277343 4.457031-2.261719 8.597656-6.378907 10.390625l-170.667968 74.664062c-1.363282.597657-2.835938.898438-4.265625.898438zm-104.253907-160.621094 107.539063 136.875 156.289063-68.371094-9.769532-165.976562-166.253906-39.101562zm0 0" fill="#ffffff" data-original="#000000" style="" class=""/><path xmlns="http://www.w3.org/2000/svg" d="m202.667969 512.082031c-1.257813 0-2.515625-.214843-3.753907-.683593-5.527343-2.070313-8.320312-8.210938-6.230468-13.738282l32-85.332031c2.070312-5.527344 8.234375-8.277344 13.738281-6.230469 5.527344 2.070313 8.320313 8.214844 6.230469 13.738282l-32 85.332031c-1.601563 4.269531-5.675782 6.914062-9.984375 6.914062zm0 0" fill="#ffffff" data-original="#000000" style="" class=""/><path xmlns="http://www.w3.org/2000/svg" d="m480 405.414062c-2.152344 0-4.308594-.640624-6.207031-1.984374l-74.664063-53.332032c-4.800781-3.414062-5.890625-10.089844-2.476562-14.871094 3.433594-4.796874 10.089844-5.90625 14.890625-2.472656l74.667969 53.332032c4.800781 3.414062 5.886718 10.09375 2.472656 14.871093-2.070313 2.902344-5.375 4.457031-8.683594 4.457031zm0 0" fill="#ffffff" data-original="#000000" style="" class=""/><path xmlns="http://www.w3.org/2000/svg" d="m394.667969 170.75c-2.730469 0-5.460938-1.046875-7.550781-3.117188-4.160157-4.160156-4.160157-10.921874 0-15.082031l64-64c4.160156-4.160156 10.921874-4.160156 15.082031 0 4.160156 4.160157 4.160156 10.921875 0 15.082031l-64 64c-2.070313 2.070313-4.800781 3.117188-7.53125 3.117188zm0 0" fill="#ffffff" data-original="#000000" style="" class=""/><path xmlns="http://www.w3.org/2000/svg" d="m213.335938 128.082031c-4.074219 0-7.980469-2.347656-9.75-6.335937l-42.667969-96c-2.386719-5.375.042969-11.691406 5.417969-14.082032 5.398437-2.34375 11.671874.023438 14.082031 5.421876l42.667969 96c2.386718 5.375-.042969 11.6875-5.421876 14.078124-1.40625.617188-2.878906.917969-4.328124.917969zm0 0" fill="#ffffff" data-original="#000000" style="" class=""/><path xmlns="http://www.w3.org/2000/svg" d="m117.335938 277.414062h-106.667969c-5.886719 0-10.667969-4.777343-10.667969-10.664062 0-5.890625 4.78125-10.667969 10.667969-10.667969h106.667969c5.886718 0 10.664062 4.777344 10.664062 10.667969 0 5.886719-4.777344 10.664062-10.664062 10.664062zm0 0" fill="#ffffff" data-original="#000000" style="" class=""/></g></svg>
